<?xml version="1.0" standalone="no"?>
<!DOCTYPE svg PUBLIC "-//W3C//DTD SVG 20010904//EN"
 "http://www.w3.org/TR/2001/REC-SVG-20010904/DTD/svg10.dtd">
<svg version="1.0" xmlns="http://www.w3.org/2000/svg"
 width="1024.000000pt" height="1024.000000pt" viewBox="0 0 1024.000000 1024.000000"
 preserveAspectRatio="xMidYMid meet">

<g transform="translate(0.000000,1024.000000) scale(0.100000,-0.100000)"
fill="#000000" stroke="none">
<path d="M4760 7393 c5 -27 10 -83 11 -127 l4 -78 -51 -14 c-28 -7 -76 -24
-108 -38 -80 -36 -227 -126 -221 -136 11 -17 101 -40 159 -40 37 0 88 10 128
23 37 13 64 19 62 15 -8 -12 -107 -60 -200 -97 -103 -41 -143 -80 -200 -193
-54 -107 -121 -184 -426 -494 l-219 -221 11 -74 c24 -155 65 -273 100 -284 42
-13 140 24 193 73 15 14 27 22 27 16 0 -5 -25 -32 -56 -60 l-56 -51 41 -17
c54 -21 83 -20 130 3 48 25 55 35 75 104 24 83 54 110 184 167 62 27 129 58
148 69 28 17 53 21 122 21 56 1 104 7 134 18 144 52 239 196 256 387 l7 80 19
-66 c27 -96 20 -206 -17 -281 -36 -72 -103 -140 -172 -170 l-53 -23 5 -75 c7
-101 -14 -159 -123 -347 -48 -81 -100 -179 -116 -218 -59 -142 -95 -334 -85
-460 5 -68 26 -169 33 -162 2 2 18 43 35 93 53 148 109 222 354 464 301 297
443 500 505 721 28 99 50 248 50 336 0 139 -37 326 -85 431 -14 30 -24 57 -22
58 8 9 88 -149 116 -228 116 -332 56 -704 -162 -1008 -96 -134 -138 -182 -343
-390 -270 -274 -337 -385 -351 -582 -8 -102 9 -184 59 -288 32 -67 57 -101
117 -160 45 -44 99 -87 131 -102 223 -110 470 -58 567 118 45 83 54 162 24
230 -68 153 -229 201 -334 99 -42 -41 -54 -87 -37 -139 24 -74 110 -101 167
-52 22 19 28 32 28 65 0 48 11 48 43 1 28 -42 28 -72 -2 -136 -77 -166 -312
-137 -356 45 -26 108 21 242 127 366 182 212 620 512 885 606 46 16 69 30 73
44 4 11 9 110 12 220 7 266 -12 407 -88 642 -130 405 -411 755 -749 932 -54
28 -123 60 -153 70 l-55 19 5 -61 c4 -46 1 -67 -10 -82 -22 -29 -30 -14 -56
105 -31 145 -75 233 -151 304 -34 31 -69 56 -79 56 -16 0 -17 -6 -11 -47z
m-199 -783 c43 -23 10 -60 -55 -60 -43 0 -53 13 -32 45 18 27 53 33 87 15z
m-712 -684 c19 -22 -5 -96 -30 -96 -16 0 -30 52 -24 82 7 31 34 38 54 14z"/>
<path d="M4589 7413 c-3 -48 5 -92 23 -134 19 -47 19 -47 54 -36 29 9 34 15
34 42 0 34 -37 98 -73 127 -28 22 -37 22 -38 1z"/>
<path d="M3560 4265 c-10 -12 -10 -21 -2 -40 l12 -25 401 2 c370 3 403 4 413
21 8 12 8 22 0 35 -10 16 -43 17 -411 20 -351 2 -402 0 -413 -13z"/>
<path d="M5908 4269 c-21 -12 -23 -40 -6 -57 9 -9 120 -12 439 -12 375 0 429
2 443 16 9 8 16 19 16 24 0 5 -7 16 -16 24 -14 14 -67 16 -437 16 -268 0 -428
-4 -439 -11z"/>
<path d="M4847 3714 c16 -34 18 -73 21 -285 l3 -246 -35 -31 c-19 -16 -32 -33
-29 -36 4 -3 53 -6 110 -6 110 0 120 5 83 45 -19 20 -20 33 -18 136 l3 114 32
-45 c18 -25 47 -62 65 -83 l33 -38 63 77 62 77 0 -91 c0 -50 2 -97 6 -105 3
-8 -6 -28 -20 -45 -15 -16 -26 -33 -26 -36 0 -8 205 -8 214 1 3 4 -7 19 -24
35 l-31 28 3 262 c2 145 7 271 12 281 6 12 4 17 -5 16 -8 0 -33 -26 -57 -57
-23 -31 -77 -103 -119 -159 l-76 -102 -58 77 c-75 100 -200 244 -217 250 -9 3
-8 -7 5 -34z"/>
<path d="M6986 3649 c-3 -55 -4 -105 0 -110 8 -13 34 9 34 28 0 8 11 25 25 38
19 20 34 25 75 25 l50 0 0 -229 0 -230 -30 -21 c-16 -12 -30 -26 -30 -31 0 -5
51 -9 115 -9 63 0 115 3 115 8 0 4 -13 19 -30 34 l-30 26 0 226 0 226 46 0
c42 0 50 -4 85 -42 l39 -43 0 103 c0 56 -3 102 -7 102 -5 -1 -19 -7 -33 -15
-37 -21 -327 -21 -377 0 -19 8 -36 15 -38 15 -1 0 -5 -45 -9 -101z"/>
<path d="M2235 3727 c-22 -5 -68 -6 -103 -3 -67 6 -69 3 -31 -40 19 -20 18
-23 -37 -179 -30 -88 -57 -161 -58 -163 -4 -4 -78 184 -101 260 -18 55 -18 56
3 90 l21 34 -115 1 -116 1 27 -28 c16 -16 67 -126 129 -276 118 -286 131 -314
150 -314 8 0 26 31 42 73 15 39 42 108 59 152 18 44 38 96 46 115 29 79 101
235 115 252 24 26 13 35 -31 25z"/>
<path d="M8060 3693 l30 -47 0 -234 0 -234 -30 -28 c-16 -15 -30 -31 -30 -34
0 -3 50 -6 110 -6 61 0 110 4 110 8 0 5 -11 19 -25 32 -24 23 -25 27 -25 159
l0 136 171 -172 c94 -95 175 -173 180 -173 5 0 9 120 9 280 l0 279 29 34 30
33 -115 0 c-62 -1 -114 -4 -114 -7 0 -3 11 -16 25 -29 23 -22 24 -28 27 -179
l3 -156 -191 193 c-193 193 -253 239 -194 145z"/>
<path d="M2390 3722 c0 -2 11 -18 25 -36 l25 -33 0 -241 0 -241 -30 -21 c-17
-12 -28 -26 -25 -31 8 -11 225 -12 225 -1 0 5 -11 19 -25 32 l-25 23 0 243 0
242 25 30 c14 17 25 31 25 33 0 2 -50 4 -110 4 -61 0 -110 -1 -110 -3z"/>
<path d="M2783 3710 c6 -8 19 -24 29 -35 15 -18 17 -46 18 -260 l1 -240 -32
-27 c-24 -20 -29 -29 -18 -33 8 -3 93 -4 189 -3 l175 3 3 88 c3 100 -7 111
-52 52 -26 -33 -30 -35 -87 -35 l-59 0 0 221 c0 218 0 221 24 252 l25 32 -114
0 c-99 0 -112 -2 -102 -15z"/>
<path d="M3350 3721 c0 -2 14 -19 30 -38 l30 -34 0 -235 0 -236 -30 -30 c-16
-16 -30 -32 -30 -34 0 -2 82 -3 183 -2 l182 3 3 84 c2 46 -1 88 -7 94 -6 6
-19 -6 -36 -32 -28 -41 -28 -41 -91 -41 l-64 0 0 214 0 213 30 38 c17 21 30
38 30 39 0 0 -52 1 -115 1 -63 0 -115 -2 -115 -4z"/>
<path d="M4040 3722 c0 -2 10 -20 21 -40 l21 -37 -78 -235 c-62 -188 -83 -240
-106 -262 -15 -14 -28 -29 -28 -32 0 -3 47 -6 105 -6 110 0 121 5 88 42 -14
15 -14 24 -4 58 l12 40 78 0 c74 0 78 -1 89 -25 17 -37 15 -59 -8 -80 -11 -10
-20 -22 -20 -27 0 -4 52 -8 115 -8 118 0 135 6 91 35 -13 9 -33 37 -44 63 -45
104 -163 469 -160 492 l4 25 -88 0 c-48 0 -88 -1 -88 -3z m142 -329 l16 -43
-49 0 c-27 0 -49 2 -49 4 0 2 10 29 21 60 24 63 30 61 61 -21z"/>
<path d="M5730 3723 c0 -1 9 -18 21 -37 l21 -36 -62 -187 c-74 -223 -110 -307
-139 -322 -43 -23 -20 -31 89 -31 61 0 110 3 110 6 0 3 -9 19 -20 34 -19 27
-20 32 -6 65 l15 35 75 0 c66 0 77 -3 90 -22 22 -30 20 -61 -4 -83 -11 -10
-17 -22 -14 -26 3 -5 54 -9 115 -9 88 0 109 3 109 14 0 8 -8 17 -18 20 -27 9
-44 45 -116 243 -76 209 -96 279 -89 314 l4 24 -90 0 c-50 0 -91 -1 -91 -2z
m137 -325 l23 -48 -54 0 -55 0 27 61 c14 34 28 55 31 48 2 -8 14 -35 28 -61z"/>
<path d="M6310 3694 l30 -35 0 -244 0 -244 -30 -23 c-16 -12 -30 -25 -30 -30
0 -4 52 -8 115 -8 63 0 115 3 115 6 0 3 -11 19 -25 36 -22 26 -25 39 -25 104
0 70 1 74 23 74 14 0 29 -10 40 -29 9 -16 46 -65 82 -110 l66 -81 79 0 c44 0
80 4 80 9 0 6 -14 18 -31 28 -36 21 -182 200 -173 214 3 5 11 9 18 9 23 0 66
40 86 81 38 74 21 160 -43 216 -48 42 -84 50 -260 56 l-147 5 30 -34z m270
-93 c56 -41 63 -98 18 -141 -17 -15 -35 -20 -80 -20 l-58 0 0 96 0 97 48 -7
c26 -3 58 -14 72 -25z"/>
<path d="M7651 3692 l29 -33 0 -247 0 -247 -32 -27 -33 -27 118 -1 c64 0 117
4 117 8 0 5 -11 19 -25 32 l-25 23 0 235 c0 231 0 236 24 277 l24 41 -113 -1
-113 0 29 -33z"/>
<path d="M5126 2731 c-10 -11 -44 -29 -74 -38 -78 -25 -112 -59 -112 -115 0
-55 13 -68 64 -68 90 0 150 78 144 186 -3 56 -3 56 -22 35z"/>
<path d="M5221 2676 c6 -81 16 -103 60 -140 57 -48 149 -27 149 34 0 64 -33
99 -111 120 -24 7 -58 22 -74 35 l-30 22 6 -71z"/>
<path d="M3846 2590 c-246 -4 -280 -7 -289 -22 -8 -12 -7 -21 2 -32 12 -15 68
-16 529 -14 476 3 516 4 526 20 8 13 7 21 -4 32 -19 17 -352 24 -764 16z"/>
<path d="M5756 2578 c-17 -13 -19 -20 -10 -35 11 -17 41 -18 514 -21 363 -1
507 1 516 9 22 18 17 48 -8 54 -13 3 -241 6 -507 8 -442 2 -487 1 -505 -15z"/>
<path d="M5152 2481 c-29 -51 -28 -83 3 -118 l25 -28 25 28 c14 15 25 40 25
54 0 25 -38 103 -50 103 -3 0 -16 -17 -28 -39z"/>
</g>
</svg>
